<svg xmlns="http://www.w3.org/2000/svg" xmlns:xlink="http://www.w3.org/1999/xlink" width="24" height="24" viewBox="0 0 24 24">
  <defs>
    <path id="icon-scan-a" d="M4,9 L2,9 L2,4 C2,2.8954305 2.8954305,2 4,2 L9,2 L9,4 L5,4 C4.44771525,4 4,4.44771525 4,5 L4,9 Z M15,4 L15,2 L20,2 C21.1045695,2 22,2.8954305 22,4 L22,9 L20,9 L20,5 C20,4.44771525 19.5522847,4 19,4 L15,4 Z M20,15 L22,15 L22,20 C22,21.1045695 21.1045695,22 20,22 L15,22 L15,20 L19,20 C19.5522847,20 20,19.5522847 20,19 L20,15 Z M9,20 L9,22 L4,22 C2.8954305,22 2,21.1045695 2,20 L2,15 L4,15 L4,19 C4,19.5522847 4.44771525,20 5,20 L9,20 Z M6,7 L8,7 L8,17 L6,17 L6,7 Z M10,7 L12,7 L12,17 L10,17 L10,7 Z M14,7 L18,7 L18,17 L14,17 L14,7 Z"/>
  </defs>
  <g fill="none" fill-rule="evenodd">
    <use fill="#000" fill-rule="nonzero" xlink:href="#icon-scan-a"/>
  </g>
</svg>
